<svg xmlns="http://www.w3.org/2000/svg" viewBox="0 0 420 220" role="img" aria-label="Logo udang menghadap kanan">
  <g fill="none" stroke="#111" stroke-width="9" stroke-linecap="round" stroke-linejoin="round">
    <path d="M58 80 C105 26 202 18 291 48 C337 64 360 101 342 132 C323 164 274 175 222 158 C170 141 134 107 121 73"/>
    <path d="M122 73 C164 96 213 99 265 84 C305 73 334 86 345 112"/>
    <path d="M64 82 C111 75 160 80 209 99"/>
    <path d="M255 48 C273 70 276 97 264 126"/>
    <path d="M219 40 C236 67 238 107 219 148"/>
    <path d="M184 38 C199 69 198 112 174 142"/>
    <path d="M146 48 C158 74 156 103 139 125"/>
    <path d="M314 64 C351 42 381 43 399 62"/>
    <path d="M318 94 C354 89 382 98 398 123"/>
    <path d="M104 124 C85 142 67 156 43 164"/>
    <path d="M132 142 C111 164 91 181 64 191"/>
    <path d="M166 157 C151 181 133 197 108 207"/>
    <path d="M194 164 C185 188 171 205 149 214"/>
    <path d="M238 162 C259 182 289 191 318 187"/>
    <path d="M248 181 C272 203 304 210 338 203"/>
    <path d="M351 124 C373 120 391 124 407 137"/>
    <circle cx="310" cy="77" r="7" fill="#111" stroke="none"/>
    <path d="M287 82 C309 91 326 103 337 119"/>
    <path d="M53 80 C34 54 21 34 9 13"/>
    <path d="M60 79 C43 35 39 22 45 7"/>
  </g>
</svg>
